PathFileType  4	(X/Y/Z) C:\Users\antoi\Documents\MyRepositories\mobilecap\ResultsAnalysis
DataRate	CameraRate	NumFrames	NumMarkers	Units	OrigDataRate	OrigDataStartFrame	OrigNumFrames
100.0	100.0	4	51	mm	100.0	231	263
Frame#	Time	r_knee			r_shank_antsup			r_ankle			r_calc			r_5meta			r_toe			L_knee			L_shank_antsup			L_ankle			L_calc			L_5meta			L_toe			r_sh2			r_sh3			r_sh4			L_sh2			L_sh3			r_thigh1			r_thigh2			r_thigh3			r_thigh4			r_thigh5			L_thigh1			L_thigh2			L_thigh3			L_thigh4			r.ASIS			r.PSIS			L.ASIS			L.PSIS			C7			R_Shoulder			L_Shoulder			R_Sternum			L_Sternum			R_humerus			R_elbow_med			R_elbow_lat			R_forearm			R_wrist_radius			R_wrist_ulna			L_humerus			L_elbow_med			L_elbow_lat			L_forearm			L_wrist_radius			L_wrist_ulna			R_HJC			L_HJC			R_HJC_reg			L_HJC_reg			
		X1	Y1	Z1	X2	Y2	Z2	X3	Y3	Z3	X4	Y4	Z4	X5	Y5	Z5	X6	Y6	Z6	X7	Y7	Z7	X8	Y8	Z8	X9	Y9	Z9	X10	Y10	Z10	X11	Y11	Z11	X12	Y12	Z12	X13	Y13	Z13	X14	Y14	Z14	X15	Y15	Z15	X16	Y16	Z16	X17	Y17	Z17	X18	Y18	Z18	X19	Y19	Z19	X20	Y20	Z20	X21	Y21	Z21	X22	Y22	Z22	X23	Y23	Z23	X24	Y24	Z24	X25	Y25	Z25	X26	Y26	Z26	X27	Y27	Z27	X28	Y28	Z28	X29	Y29	Z29	X30	Y30	Z30	X31	Y31	Z31	X32	Y32	Z32	X33	Y33	Z33	X34	Y34	Z34	X35	Y35	Z35	X36	Y36	Z36	X37	Y37	Z37	X38	Y38	Z38	X39	Y39	Z39	X40	Y40	Z40	X41	Y41	Z41	X42	Y42	Z42	X43	Y43	Z43	X44	Y44	Z44	X45	Y45	Z45	X46	Y46	Z46	X47	Y47	Z47	X48	Y48	Z48	X49	Y49	Z49	X50	Y50	Z50	X51	Y51	Z51	

231	2.30000000	-128.66059	914.95410	-379.52971	-116.59513	833.48095	-367.06330	-212.71928	484.03786	-391.40358	-283.20270	472.18559	-443.95655	-123.96740	347.02170	-366.96030	-75.92482	360.07316	-420.67369	-165.18785	931.40739	-711.01494	-148.27157	816.21828	-740.96842	-217.82481	487.68146	-733.71957	-282.19162	453.73593	-676.48641	-54.70459	400.32234	-741.29786	-99.20831	376.60132	-794.75800	-132.99553	721.29601	-359.18369	-189.90410	844.35047	-350.92959	-216.03812	733.52213	-352.63611	-236.88534	831.23386	-730.97675	-244.13020	710.55729	-740.44919	-39.80171	1231.24438	-351.04653	-34.98907	1122.01627	-365.11111	-87.21691	1091.16479	-336.52865	-153.69377	1221.41985	-341.34295	-140.68193	1104.70978	-345.69399	-82.36684	1251.56055	-720.84418	-80.81757	1113.75832	-729.02079	-199.58129	1248.14226	-706.09807	-189.57332	1109.11326	-718.07666	-7.98257	1433.96910	-403.82330	-196.61560	1501.72716	-455.33882	-40.24778	1436.66369	-662.25918	-209.05497	1502.89063	-560.63934	-219.30827	1992.78547	-506.80055	-159.12580	1997.77600	-360.80848	-190.60888	1989.29473	-653.30383	-54.90510	1949.86264	-493.10992	-64.53397	1945.35639	-555.79632	-222.86522	1804.82043	-177.66101	-246.80116	1683.38825	-199.73044	-252.74788	1733.90845	-128.84701	-140.39069	1641.31519	-50.50683	-60.60896	1562.00836	-17.34662	-97.26097	1561.06395	10.29822	-325.63761	1868.81253	-813.65011	-422.86019	1776.13594	-793.07706	-385.60928	1815.86954	-860.25288	-243.06933	1716.72348	-862.88293	-157.64606	1683.02205	-834.23773	-173.16398	1654.83696	-860.31964	-100.99775	1367.99539	-399.80075	-128.25216	1370.92861	-628.53231	-96.15251	1370.20804	-431.34715	-116.31871	1372.09483	-602.05004	
232	2.31000000	-124.88800	910.28829	-378.01397	-112.72803	828.46370	-366.28163	-209.06765	479.08698	-389.58021	-280.60461	467.42493	-440.69257	-119.94812	341.53893	-367.95855	-72.92065	355.14988	-422.43549	-161.27818	926.23168	-710.17455	-145.01733	810.69569	-739.56708	-216.28279	482.91183	-732.13260	-280.59018	449.32542	-674.77132	-53.47933	394.93991	-739.63130	-97.99247	371.44873	-793.36038	-129.07274	716.51609	-358.17575	-185.49422	839.26410	-349.23560	-212.05562	728.53913	-350.32754	-233.52832	826.37181	-730.01611	-241.38790	705.67026	-739.15582	-37.01421	1226.70789	-350.24463	-31.99820	1117.44610	-364.01666	-84.12761	1086.58444	-335.42993	-150.76683	1216.61575	-339.94976	-137.54066	1099.91263	-344.37433	-80.58942	1246.97525	-719.90219	-77.87768	1109.14674	-728.13231	-197.47274	1243.00272	-705.82217	-186.69619	1103.77429	-717.71402	-7.02920	1429.28592	-403.04998	-195.76635	1496.05422	-454.45908	-39.41341	1431.98782	-661.66802	-208.45321	1496.78679	-559.60197	-217.21601	1988.42478	-506.40872	-155.84849	1993.11242	-359.67935	-188.55209	1985.90955	-652.11456	-52.96564	1945.14396	-492.77204	-62.68834	1940.68997	-555.53692	-222.40282	1798.23910	-179.95825	-250.82061	1678.27954	-203.78501	-254.57703	1727.51484	-131.93058	-144.08503	1631.19718	-56.55750	-65.59211	1549.67572	-25.60478	-102.03913	1548.75439	2.22582	-327.75048	1866.83467	-809.44771	-427.29345	1777.27078	-785.36644	-389.84308	1814.55063	-854.16691	-250.18469	1711.60146	-856.28307	-165.11604	1676.17451	-827.70978	-181.89213	1647.91281	-853.28438	-99.43142	1362.74413	-399.03386	-126.94025	1365.59659	-627.73593	-94.72919	1365.55797	-430.19058	-115.33662	1366.74999	-600.97753	
233	2.32000000	-120.83503	904.57268	-376.50145	-108.46803	822.37363	-365.51808	-205.42624	473.01440	-387.19783	-278.00030	461.69298	-436.90625	-115.95293	334.88764	-369.02813	-70.08736	349.14806	-424.26708	-157.52656	920.13676	-709.32280	-141.58965	804.45556	-738.53055	-214.37301	477.05465	-730.43965	-278.85960	443.94726	-672.95451	-51.99346	388.41373	-737.53253	-96.48072	365.17517	-791.64861	-124.84850	710.52024	-357.22454	-180.84719	833.23972	-347.45338	-207.76130	722.67578	-347.85031	-230.05739	820.46246	-729.29196	-238.50004	699.68013	-737.86006	-34.25188	1221.20719	-349.44473	-28.90471	1111.80975	-363.04685	-80.92506	1080.82191	-334.46356	-147.86444	1210.61689	-338.59770	-134.27362	1093.92298	-342.86728	-78.84877	1241.42695	-719.26760	-75.19220	1103.64538	-727.07058	-195.87897	1236.27020	-704.84279	-183.96246	1097.49637	-717.45071	-6.10923	1423.47051	-402.32099	-195.05101	1489.29476	-453.42517	-38.65616	1426.37543	-660.98980	-207.89871	1489.92026	-558.35981	-214.96832	1983.52902	-505.73759	-152.20665	1987.59614	-358.70067	-186.18932	1981.42029	-650.92641	-50.90198	1939.34342	-492.41531	-60.64744	1935.09195	-554.72440	-221.39219	1790.50362	-183.53884	-254.13323	1672.08663	-208.51133	-256.38781	1720.09841	-135.30291	-147.43589	1620.79709	-62.56921	-69.98355	1537.52603	-33.57419	-106.28978	1536.54434	-5.76777	-329.62934	1863.99891	-805.35094	-431.16589	1777.41068	-777.95571	-393.75866	1812.28198	-848.11353	-256.68264	1706.07462	-849.83761	-172.34776	1669.05619	-821.66696	-189.87339	1640.96518	-846.48163	-97.96764	1356.38046	-398.27901	-125.78546	1359.41286	-626.94114	-93.39628	1359.53949	-429.31160	-114.30873	1360.55792	-600.11244	
234	2.33000000	-116.40585	897.66875	-375.31465	-103.88496	815.38894	-364.64362	-201.49768	465.91550	-384.47292	-275.14944	455.15822	-432.53353	-111.96623	327.08025	-370.00846	-67.39152	341.94324	-426.04365	-154.20687	913.11833	-708.38179	-138.16270	797.45074	-737.64809	-211.92894	470.08275	-728.78553	-276.85888	437.57535	-671.47594	-49.97669	380.67995	-734.94789	-94.38967	357.56692	-789.21683	-120.33488	703.50737	-356.18523	-175.92237	826.32322	-345.50215	-203.04240	715.89983	-345.31123	-226.64023	813.45003	-728.63398	-235.36319	692.72170	-736.92676	-31.78083	1214.68898	-348.62527	-25.84302	1105.15738	-362.33410	-77.70639	1073.80902	-333.63109	-145.26403	1203.46241	-337.16478	-131.17593	1086.92893	-341.33138	-77.09627	1234.79476	-718.64592	-72.76966	1097.13273	-726.21129	-194.57157	1228.33389	-703.52944	-181.49682	1090.23032	-716.90884	-5.04816	1416.62990	-401.52388	-194.30566	1481.47545	-452.40106	-37.90351	1419.69436	-660.13246	-207.28488	1482.52362	-557.13445	-212.60347	1977.89036	-504.60735	-148.67128	1981.23482	-357.62750	-183.71817	1976.04822	-650.15677	-48.76987	1932.49280	-492.05785	-58.65813	1928.39404	-553.68824	-220.91485	1782.36385	-186.35534	-256.53670	1665.16441	-213.48466	-258.18588	1711.72296	-138.90944	-150.38537	1610.04941	-68.56389	-73.82724	1525.40189	-41.30287	-110.03620	1524.37927	-13.47991	-331.22903	1860.34162	-801.39243	-434.33947	1776.39575	-771.12713	-397.33560	1808.99380	-842.27378	-262.56766	1700.13820	-843.75680	-179.36010	1661.49664	-815.98662	-197.19739	1633.85325	-839.69060	-96.58851	1349.06188	-397.48476	-124.68287	1352.34484	-626.10958	-91.93438	1351.86111	-428.70947	-113.09485	1353.56841	-599.45969	
